<svg xmlns="http://www.w3.org/2000/svg" xmlns:xlink="http://www.w3.org/1999/xlink" width="67.65" height="54.673" viewBox="0 0 67.65 54.673">
  <defs>
    <clipPath id="clip-path">
      <rect id="Прямоугольник_1523" data-name="Прямоугольник 1523" width="33.112" height="38.777" fill="#fff"/>
    </clipPath>
  </defs>
  <g id="Сгруппировать_2529" data-name="Сгруппировать 2529" transform="translate(369.547 -812)">
    <rect id="Прямоугольник_1506" data-name="Прямоугольник 1506" width="4.244" height="49.564" transform="translate(-368.261 817.032)" fill="#fff"/>
    <rect id="Прямоугольник_1507" data-name="Прямоугольник 1507" width="4.244" height="49.564" transform="translate(-340.352 817.032)" fill="#fff"/>
    <g id="Сгруппировать_2521" data-name="Сгруппировать 2521" transform="translate(-363.052 825.292)">
      <rect id="Прямоугольник_1508" data-name="Прямоугольник 1508" width="6.69" height="8.099" transform="translate(0 0)" fill="#fff"/>
      <rect id="Прямоугольник_1509" data-name="Прямоугольник 1509" width="6.69" height="8.099" transform="translate(7.487 0)" fill="#fff"/>
      <rect id="Прямоугольник_1510" data-name="Прямоугольник 1510" width="6.69" height="8.099" transform="translate(14.975 0)" fill="#fff"/>
    </g>
    <g id="Сгруппировать_2522" data-name="Сгруппировать 2522" transform="translate(-363.052 834.189)">
      <rect id="Прямоугольник_1511" data-name="Прямоугольник 1511" width="6.69" height="8.099" transform="translate(0 0)" fill="#fff"/>
      <rect id="Прямоугольник_1512" data-name="Прямоугольник 1512" width="6.69" height="8.099" transform="translate(7.487 0)" fill="#fff"/>
      <rect id="Прямоугольник_1513" data-name="Прямоугольник 1513" width="6.69" height="8.099" transform="translate(14.975 0)" fill="#fff"/>
    </g>
    <g id="Сгруппировать_2523" data-name="Сгруппировать 2523" transform="translate(-363.052 843.085)">
      <rect id="Прямоугольник_1514" data-name="Прямоугольник 1514" width="6.69" height="8.099" transform="translate(0)" fill="#fff"/>
      <rect id="Прямоугольник_1515" data-name="Прямоугольник 1515" width="6.69" height="8.099" transform="translate(7.487)" fill="#fff"/>
      <rect id="Прямоугольник_1516" data-name="Прямоугольник 1516" width="6.69" height="8.099" transform="translate(14.975)" fill="#fff"/>
    </g>
    <g id="Сгруппировать_2524" data-name="Сгруппировать 2524" transform="translate(-363.052 851.982)">
      <rect id="Прямоугольник_1517" data-name="Прямоугольник 1517" width="6.69" height="8.099" transform="translate(0 0)" fill="#fff"/>
      <rect id="Прямоугольник_1518" data-name="Прямоугольник 1518" width="6.69" height="8.099" transform="translate(7.487 0)" fill="#fff"/>
      <rect id="Прямоугольник_1519" data-name="Прямоугольник 1519" width="6.69" height="8.099" transform="translate(14.975 0)" fill="#fff"/>
    </g>
    <rect id="Прямоугольник_1520" data-name="Прямоугольник 1520" width="4.244" height="34.279" transform="translate(-369.547 816.244) rotate(-90)" fill="#fff"/>
    <rect id="Прямоугольник_1521" data-name="Прямоугольник 1521" width="5.736" height="21.563" transform="translate(-362.973 866.673) rotate(-90)" fill="#fff"/>
    <g id="Сгруппировать_2526" data-name="Сгруппировать 2526" transform="translate(-362.95 817.08)">
      <rect id="Прямоугольник_1522" data-name="Прямоугольник 1522" width="7.246" height="21.563" transform="translate(0 7.246) rotate(-90)" fill="#fff"/>
      <g id="Сгруппировать_2525" data-name="Сгруппировать 2525" transform="translate(7.135 1.897)">
        <path id="Контур_2917" data-name="Контур 2917" d="M-296.114,850.836a2.889,2.889,0,0,0-.085-.64,1.6,1.6,0,0,1,1.434-.657c.013,0,.028-.008.042-.008s.027,0,.041,0a1.654,1.654,0,0,1,1.437.676,2.865,2.865,0,0,0-.083.632h2.254a1.662,1.662,0,0,0-.047-.355c-.233-1.211-1.671-2.3-3.56-2.3-.013,0-.026-.007-.04-.007s-.026,0-.04,0a3.453,3.453,0,0,0-3.56,2.316,1.642,1.642,0,0,0-.047.353Z" transform="translate(298.368 -848.167)" fill="#fff"/>
        <path id="Контур_2918" data-name="Контур 2918" d="M-272,864v.271a.449.449,0,0,0,.412.5h1.326a.544.544,0,0,0,.52-.41l.057-.012V864Z" transform="translate(277.087 -860.946)" fill="#fff"/>
        <path id="Контур_2919" data-name="Контур 2919" d="M-298.138,864v.35l-.033.012a.449.449,0,0,0,.43.41h1.326c.262,0,.592-.239.592-.5V864Z" transform="translate(298.209 -860.946)" fill="#fff"/>
      </g>
    </g>
    <g id="Сгруппировать_2528" data-name="Сгруппировать 2528" transform="translate(-335.008 827.819)">
      <g id="Сгруппировать_2527" data-name="Сгруппировать 2527" transform="translate(0 0)" clip-path="url(#clip-path)">
        <path id="Контур_2920" data-name="Контур 2920" d="M-241.855,951.516h9.069l.64,3.858h2.9l2.37-33.375h-6.706l-14.09,33.375h3.458Z" transform="translate(236.642 -916.598)" fill="#fff"/>
        <path id="Контур_2921" data-name="Контур 2921" d="M-153.33,972.988v-9.376h23.114c-1.5.456-6.548,6.375-11.785,6.316-5.73-.065-5.664,3.125-10.287,3.255C-157.747,973.337-153.33,972.988-153.33,972.988Z" transform="translate(161.866 -950.182)" fill="#fff"/>
        <path id="Контур_2922" data-name="Контур 2922" d="M-152.094,911.125s-.684,2.149-2.442,2.149,1.823.553,2.442,0S-152.094,911.125-152.094,911.125Z" transform="translate(161.865 -907.821)" fill="#fff"/>
        <path id="Контур_2923" data-name="Контур 2923" d="M-182.819,980.541h-7.7V963.612h7.7l4.843,10.222Z" transform="translate(190.516 -950.183)" fill="#fff"/>
      </g>
    </g>
  </g>
</svg>
