<svg xmlns="http://www.w3.org/2000/svg" width="63.785" height="245.864" viewBox="0 0 63.785 245.864">
  <g id="Flying_Everbuddy" data-name="Flying Everbuddy" transform="translate(-928.107 -843.636)">
    <path id="Контур_2665" data-name="Контур 2665" d="M1365.364,1936.731l-19.658-12.292,5.687-17.478-5.059-.508-4.406,13.523h-2.039l-1.567-12.166c.932-.841,0-3.251,0-3.251s-.9,2.834-3.188,3.212l-6.973.019-1.5,13.261-25.077,15.681c2.268.69,9.628,9.944,17.56,9.853a28.283,28.283,0,0,0,6.311-.62l1.006,4.554,2.439,7.8,3.612-.478.787-5.82,1.063-2.089,1.567,2.765-1.649,9.234,4.669,2.046,4.043-12.682v-5.049a34.551,34.551,0,0,0,4.818.334C1355.736,1946.674,1363.1,1937.421,1365.364,1936.731Z" transform="translate(-373.472 -1060.922)" fill="#fff"/>
    <line id="Линия_72" data-name="Линия 72" y2="166" transform="translate(960.5 922.5)" fill="none" stroke="#b5bd00" stroke-linecap="round" stroke-width="2"/>
    <line id="Линия_73" data-name="Линия 73" y2="132" transform="translate(952 911.5)" fill="none" stroke="#ffa300" stroke-linecap="round" stroke-width="2"/>
    <line id="Линия_75" data-name="Линия 75" y2="21" transform="translate(974 977.5)" fill="none" stroke="#4ec3e0" stroke-linecap="round" stroke-width="2"/>
    <line id="Линия_76" data-name="Линия 76" y2="40" transform="translate(946 895.5)" fill="none" stroke="#b884cb" stroke-linecap="round" stroke-width="2"/>
    <line id="Линия_74" data-name="Линия 74" y2="59" transform="translate(974 901.5)" fill="none" stroke="#4ec3e0" stroke-linecap="round" stroke-width="2"/>
  </g>
</svg>
