<svg id="Fearlessly" xmlns="http://www.w3.org/2000/svg" xmlns:xlink="http://www.w3.org/1999/xlink" width="423.502" height="90.68" viewBox="0 0 423.502 90.68">
  <defs>
    <clipPath id="clip-path">
      <path id="Контур_2924" data-name="Контур 2924" d="M33.9,73.141a8.916,8.916,0,0,1-3.594-3.75A11.961,11.961,0,0,1,28.9,64.781a5.9,5.9,0,0,1,2.734-4.648,8.725,8.725,0,0,1,2.109-1.016q1.094-.352,2.109-.586l1.172.391a6.9,6.9,0,0,0,.82.7q.43.312.82.625a1.523,1.523,0,0,0,.977-.937q.2-.625.43-1.25.234-.859.547-1.719a12.543,12.543,0,0,1,.781-1.719,3.239,3.239,0,0,1,.078-1.25,9.833,9.833,0,0,1,.313-.937,2,2,0,0,0-.664-.43,6.488,6.488,0,0,1-.664-.2,2.847,2.847,0,0,1-.469-.039q-.234-.039-.547-.117a5.86,5.86,0,0,1-1.523-1.445Q37.57,49.625,37.18,49t-.7-1.094a5.621,5.621,0,0,0-.7-.859l-.937-.625.469-.937a.581.581,0,0,0,.156-.43,1.919,1.919,0,0,0-.312-.82,3,3,0,0,1-.078-1.484l.156-.937q.781-1.016.859-1.172l.781-.781q1.8-.469,3.672-1.055t3.672-1.211q1.8-.625,3.672-1.25t3.75-1.094A2.692,2.692,0,0,1,53,34.586q.742-.117,1.367-.2a6.187,6.187,0,0,0,1.016-.078,1.052,1.052,0,0,0,.7-.391q1.328-.469,2.578-.781,2.344-.625,6.172-1.484a62.891,62.891,0,0,1,8.594-1.25l1.641-.078a3.774,3.774,0,0,0,.938.039q.469-.039.938-.039,4.063,0,5.391,2.5a5.9,5.9,0,0,1,1.406.977q.625.586,1.172,1.133.391.391.7.664a5.467,5.467,0,0,0,.547.43l.625.625a5.04,5.04,0,0,1,.313,3.672q-.469.938-1.016,1.094l-1.094.313-1.016.547q-1.016-.078-1.523-.078H81.32q-2.344,0-5.43.273t-6.289.781q-3.2.508-6.25,1.25a45.438,45.438,0,0,0-5.312,1.6,6.832,6.832,0,0,1-1.641.859,3.425,3.425,0,0,0-.7.391,4.711,4.711,0,0,1,0,1.211,7.935,7.935,0,0,1-.234,1.133,7.772,7.772,0,0,0-.117.82q-.039.43-.117.9a6.621,6.621,0,0,0-1.562,4.609l-.391.781a2.264,2.264,0,0,0-.508.9,2.125,2.125,0,0,0-.039,1.211l.313.938q1.563-.156,3.086-.352t3.242-.43q2.187-.391,4.414-.664a38.137,38.137,0,0,1,4.648-.273h3.047l-.7.7.859.078-.469,1.25.82.352a3.149,3.149,0,0,1,.508.273l.547.781a2.155,2.155,0,0,1,.7.742,3.152,3.152,0,0,1,.391,1.367l-.234.781-3.672,4.688-.469.625-.781-.234a8.345,8.345,0,0,0-2.812.313q-.625.156-1.328.352a5.233,5.233,0,0,1-1.406.2q-1.875.313-3.125.508t-2.5.352q-1.719.313-3.32.586a15.453,15.453,0,0,0-3.008.82,5.055,5.055,0,0,1-1.016.039,1.284,1.284,0,0,0-.312-.039,5.413,5.413,0,0,0-1.562.234q-.781.234-1.484.469a1.976,1.976,0,0,0-.625.82q-.156.43-.312.9a5.276,5.276,0,0,1-.43,1.055A9.908,9.908,0,0,1,45.07,77.2l.078,1.406a2.718,2.718,0,0,0-.7.2q0,.039-.078.039a3.459,3.459,0,0,1-.2,1.172q-.2.547-.352,1.016a4.287,4.287,0,0,0-.234.547,1.475,1.475,0,0,0-.078.469,4.446,4.446,0,0,1,.391,3.2,6.475,6.475,0,0,1-1.172,2.617A6.2,6.2,0,0,1,40.7,89.625a3.965,3.965,0,0,1-1.836-.078q-.586-.234-1.211-.469-.391-.156-.781-.273t-.781-.2l-.937-.781a6.366,6.366,0,0,0-.547-.9q-.312-.43-.625-.9L33.2,84.938a7.117,7.117,0,0,1-.7-1.25,12.159,12.159,0,0,1-.2-4.57,25.837,25.837,0,0,1,.977-3.633q.156-.625.313-1.172T33.9,73.141ZM120.07,45.016a3.161,3.161,0,0,1,.039.82q-.039.273-.078.508a3.094,3.094,0,0,0-.039.508,3.313,3.313,0,0,0,.156.82,8.957,8.957,0,0,1-3.789,3.633,18.933,18.933,0,0,1-4.648,1.406q-2.5.43-5.117.9a15.177,15.177,0,0,0-5.2,2.031,2.249,2.249,0,0,0-1.836,0,4.632,4.632,0,0,1-2.383.234,2.609,2.609,0,0,1-1.172.664q-.7.2-1.406.43a3.111,3.111,0,0,1,.273,1.445,2.419,2.419,0,0,0,.2,1.211,33.982,33.982,0,0,0,6.055-.078q3.32-.312,6.523-.391.078.391-.078.508t-.078.43a7.382,7.382,0,0,1,1.094.977q.547.586,1.094,1.133a5.912,5.912,0,0,0,1.133.9,2.169,2.169,0,0,0,1.367.273,4.663,4.663,0,0,1,.43,1.367,2.85,2.85,0,0,1-.2,1.523q-1.25.859-2.5,1.758a20.7,20.7,0,0,1-2.617,1.6,15.505,15.505,0,0,1-2.891,1.133,10.83,10.83,0,0,1-3.4.352h-.586a.945.945,0,0,1-.508-.234,2.621,2.621,0,0,1-1.758.234,2.621,2.621,0,0,0-1.758.234,4.611,4.611,0,0,0-2.07-.352,6.15,6.15,0,0,1-2.148-.273,27.036,27.036,0,0,0-2.266,3.516,30.845,30.845,0,0,0-1.8,3.984,24.011,24.011,0,0,0,4.414.313q1.758-.078,3.32-.273t3.2-.391a28.557,28.557,0,0,1,4.141-.117,10.356,10.356,0,0,1,3.711-1.133,19.484,19.484,0,0,0,3.945-.9,2.537,2.537,0,0,1,1.094.82q.469.586.9,1.094a7.316,7.316,0,0,0,.9.9,1.494,1.494,0,0,0,1.172.313,1.643,1.643,0,0,1,.43.742q.117.43.2.82a1.7,1.7,0,0,0,.273.664.623.623,0,0,0,.664.2,11.768,11.768,0,0,1-2.7,3.945,10.456,10.456,0,0,1-3.477,2.07,24.515,24.515,0,0,1-4.336,1.094q-2.383.391-5.273.938a1.942,1.942,0,0,1-1.172-.039,2.828,2.828,0,0,0-1.094-.2q-1.8.391-4.3.7a32.858,32.858,0,0,1-5.078.234,23.131,23.131,0,0,1-4.922-.664,8.037,8.037,0,0,1-3.828-2.07,2.555,2.555,0,0,1-.82-1.289,1.736,1.736,0,0,0-1.055-1.133,21.255,21.255,0,0,0-.312-2.266q-.234-1.25-.469-2.617t-.352-2.7a8.139,8.139,0,0,1,.117-2.422,4.9,4.9,0,0,1,.977-2.109,2.347,2.347,0,0,0,.508-2.031.541.541,0,0,0,.469-.43q.078-.352.625-.273.469-1.406,1.016-2.656t1.133-2.422q.586-1.172,1.172-2.383t1.133-2.7a6.445,6.445,0,0,1-1.6-2.227,12.3,12.3,0,0,1-.742-2.422q-.234-1.211-.391-2.5a16.166,16.166,0,0,0-.547-2.617,6.7,6.7,0,0,1,1.914-1.914,11.384,11.384,0,0,1,2.461-1.211,21.154,21.154,0,0,1,2.891-.781q1.562-.312,3.281-.7,3.125-1.016,5.586-1.562t4.844-.9q2.383-.352,4.961-.664t5.859-.937a1.972,1.972,0,0,0,1.328.7q.313-.7.742-.43t.352-.43a7.432,7.432,0,0,0,1.992,2.227A12.906,12.906,0,0,0,120.07,45.016Zm39.453,37.422a12.522,12.522,0,0,1-1.367,2.7,11.67,11.67,0,0,1-4.8,4.18,8.133,8.133,0,0,1-3.125.781,3.834,3.834,0,0,1-1.367-.508,7.454,7.454,0,0,0-.742-.508q-.234-.156-.43-.273t-.352-.2l-.937-.391.313-1.016a1.2,1.2,0,0,0-.078-.977,5.95,5.95,0,0,0-.937-.977l-.469-.469a3.1,3.1,0,0,1-.391-.469l-1.328-1.484,2.109-.547a4.964,4.964,0,0,0,2.617-1.406,4.268,4.268,0,0,0,.508-2.891,6.453,6.453,0,0,0-2.617-.078q-1.055.234-2.148.547-1.406.391-2.852.664a17.051,17.051,0,0,1-3.164.273q-.625,0-1.172-.039t-1.172-.117l-.781-.156a2.084,2.084,0,0,0-.312-.977,2.934,2.934,0,0,1-.312-.273,6.478,6.478,0,0,1-.82-1.055,2.117,2.117,0,0,1-.2-1.68,3.739,3.739,0,0,1-.469-1.406,8.754,8.754,0,0,0-.7,1.953l-.312.781-.781.156a.527.527,0,0,0-.234.352,1.676,1.676,0,0,0-.078.43l-.391,1.328a2.934,2.934,0,0,1-.312.273,2.934,2.934,0,0,0-.312.273,14.159,14.159,0,0,1-.391,1.406q-.234.7-.469,1.328-.391,1.016-.664,1.992a5.394,5.394,0,0,0-.2,1.914l-.312.859a3.263,3.263,0,0,1-.859.742q-.469.273-.937.508a1.357,1.357,0,0,1-.43.273q-.273.117-.43.2l-.234.859-.937.156q-.859.156-1.211.234a3.814,3.814,0,0,1-.82.078l-.781-.078q-.859-.7-1.328-1.133a7.482,7.482,0,0,0-1.094-.82,3.9,3.9,0,0,1-.781-1.406q-.078-.469-.156-.859a4.234,4.234,0,0,1-.2-.781.78.78,0,0,0-.2-.469l-1.016-.937.859-.7.078-1.328q1.562-3.984,3.32-7.656t3.633-7.5q.625-1.25,1.211-2.5t1.211-2.5a1.731,1.731,0,0,1-.078-.547,1.919,1.919,0,0,1,.156-.7q.859-1.328,1.406-2.383t1.094-2.148q.625-1.328,1.289-2.578a18.791,18.791,0,0,1,1.68-2.578l1.25-.547q.234-.078.547-.2a1.991,1.991,0,0,1,.7-.117l1.172.156a11.7,11.7,0,0,0,3.828-2.852,39.638,39.638,0,0,0,3.359-4.414l.781-1.094,1.016.625a4.54,4.54,0,0,0,1.094.43q.7.2,1.484.43,1.406.312,2.656.7a4.864,4.864,0,0,1,2.031,1.172,9.249,9.249,0,0,1,.547,1.875,10.539,10.539,0,0,0,.234,1.25q.234,1.328.43,2.656t.273,2.969q.391,1.328.664,2.617t.508,2.617q.391,1.875.781,3.633a21.461,21.461,0,0,0,1.016,3.32,2.285,2.285,0,0,1,.781.078,4.25,4.25,0,0,1,.82-.234q.43-.078.977-.156l.859-.078.313.781q.078.391.781.781a2.872,2.872,0,0,1,1.484.43,8,8,0,0,1,.859.742,2.448,2.448,0,0,0,.625.469l1.172.469-.625,1.172a10.468,10.468,0,0,1-2.227,2.7,13.761,13.761,0,0,1-3.242,2.148q.078.469.117.9a3.988,3.988,0,0,0,.2.9q.234,1.328.391,2.734a13.405,13.405,0,0,1,0,2.891ZM136.945,68.922q2.344-.156,4.258-.352t4.258-.664q-.547-2.344-1.172-4.883t-1.328-5.039l-.469.781a33.332,33.332,0,0,0-3.008,3.672,44.05,44.05,0,0,0-2.461,3.828l-.937,1.406q-.469.7-.859,1.406a5.468,5.468,0,0,1,.9-.078A4.175,4.175,0,0,0,136.945,68.922Zm40.313,11.953a42.837,42.837,0,0,1-1.523,4.727,14.74,14.74,0,0,1-1.992,3.32,1.614,1.614,0,0,0-1.406.234,5.621,5.621,0,0,1-.859.7,1.631,1.631,0,0,1-1.016,0,2.82,2.82,0,0,1-.547-.352,3.8,3.8,0,0,0-.586-.391,2.233,2.233,0,0,0-1.055-.2q-.156-.625-.352-1.172t-1.055-.391a2.552,2.552,0,0,0,.078-1.055,5.7,5.7,0,0,0-.2-.781,7.077,7.077,0,0,1-.2-.7,1.879,1.879,0,0,1,.078-.9q-.391,0-.625-.547a10.708,10.708,0,0,0-.547-1.094q.234-1.406.469-2.656a19.258,19.258,0,0,1,.586-2.344q.352-1.094.586-2.187a3.835,3.835,0,0,0-.234-2.266q.312.234.469-.117a3.5,3.5,0,0,0,.234-.937,8.858,8.858,0,0,0,.078-1.172,5.1,5.1,0,0,0-.078-.977,32.373,32.373,0,0,0,1.289-4.18q.508-2.148.938-4.258t.9-4.141a19.8,19.8,0,0,1,1.25-3.75,3.859,3.859,0,0,1,1.914.2,1.983,1.983,0,0,1,1.289.9,17.2,17.2,0,0,0,3.594-3.789q1.563-2.227,3.2-4.336a23.625,23.625,0,0,1,3.633-3.75,9.2,9.2,0,0,1,5.039-1.953q1.563,1.172,3.477,2.383a10.192,10.192,0,0,1,3.164,3.164,5.662,5.662,0,0,1,1.055.664,10.294,10.294,0,0,0,1.055.742v.938a7.117,7.117,0,0,1,1.523,1.992,20.558,20.558,0,0,1,1.055,2.422l.938,2.578a19.07,19.07,0,0,0,1.094,2.461,1.851,1.851,0,0,0-.156.664,1.674,1.674,0,0,0,.117.586,5.753,5.753,0,0,1,.2.625,2.34,2.34,0,0,1,0,.859,8.649,8.649,0,0,1-2.227,5.547,16.38,16.38,0,0,1-4.8,3.477,38.411,38.411,0,0,1-6.016,2.3A52.889,52.889,0,0,0,185.3,74q0,.313.273.313t.2.391q1.875,1.172,2.969,1.875a19.328,19.328,0,0,0,2.07,1.172,15.456,15.456,0,0,0,2.109.82q1.133.352,3.164.82t3.164.742q1.133.273,2.07.469t1.914.313q.977.117,2.773.273a6.77,6.77,0,0,1,1.211,1.68,6.43,6.43,0,0,1,.664,1.953,7.65,7.65,0,0,1,.078,1.875,2.49,2.49,0,0,1-.547,1.445.284.284,0,0,0,.352.2,1.52,1.52,0,0,1,.586.039,2.79,2.79,0,0,0-.781.781l-.625.938a4.32,4.32,0,0,1-.7.82,1.907,1.907,0,0,1-1.094.43,10.549,10.549,0,0,1-6.094.117,67.4,67.4,0,0,1-9.3-3.008q-2.812-1.094-4.57-1.914a26.875,26.875,0,0,1-3.047-1.641,18.333,18.333,0,0,1-2.344-1.758Q178.742,82.2,177.258,80.875Zm11.172-26.8a14.676,14.676,0,0,1-1.914,2.266q-1.055,1.016-2.031,2.07a14.49,14.49,0,0,0-1.758,2.344,8.781,8.781,0,0,0-1.094,3.008,21.645,21.645,0,0,0,5.7-1.523q2.969-1.211,5.625-2.3a6.9,6.9,0,0,0-1.68-3.906A6.689,6.689,0,0,0,188.43,54.078Zm40.156,34.063q-2.187.7-4.766,1.406a19.522,19.522,0,0,1-5.156.7,9.137,9.137,0,0,1-6.172-1.953,4.234,4.234,0,0,0-.7-1.172,5.8,5.8,0,0,1-.43-.664,2.744,2.744,0,0,1-.273-.977,8.465,8.465,0,0,1-1.484-2.539,13.05,13.05,0,0,1-.742-2.969,15.685,15.685,0,0,1,.43-6.055,1.929,1.929,0,0,0,.2-.625q.039-.313.117-.7.312-1.25.664-2.422a6.691,6.691,0,0,1,.977-2.031,2.027,2.027,0,0,1,0-1.562,10.849,10.849,0,0,1,.7-1.562q1.094-2.969,1.836-5.039t1.523-4.1q1.328-3.516,2.5-6.953t2.109-7.422q.625-.391.938-.547.469-.156.781-.234a29.129,29.129,0,0,0,3.281,1.367,9.752,9.752,0,0,0,3.125.664,3.59,3.59,0,0,1,.781.586,4.262,4.262,0,0,0,.313.352,15.237,15.237,0,0,1,1.484,2.07,4.238,4.238,0,0,1,.391,2.773q-.469.7-.7.7a21.89,21.89,0,0,1-.82,2.656q-.43,1.094-.9,2.188-.547,1.172-1.016,2.344a15.209,15.209,0,0,0-.781,2.891,2.684,2.684,0,0,0-.43.7q-.117.312-.273.7t-.352.82a2.007,2.007,0,0,1-.586.742,12.8,12.8,0,0,1-.742,3.281q-.508,1.25-1.055,2.5-.937,2.266-1.68,4.531a20.047,20.047,0,0,0-.9,5.156,2,2,0,0,1,.742-.156h.664a6.886,6.886,0,0,1,1.641.234,13.1,13.1,0,0,1,5.117-1.484q2.773-.234,5.508-.312h2.188a12.375,12.375,0,0,0,2.031-.156,4.6,4.6,0,0,0,.9.43,3.236,3.236,0,0,0,.586.039,4.852,4.852,0,0,1,.938.078,7.045,7.045,0,0,0,1.8,1.25,18.4,18.4,0,0,0,1.8.7q.859.313,1.68.664a6.958,6.958,0,0,1,1.6.977l.547,3.359q.547.7.469.938a1.273,1.273,0,0,1-.312.938l.156.859a4.424,4.424,0,0,0-1.6.547,6.9,6.9,0,0,0-.82.7,8.253,8.253,0,0,1-.9.078h-.508a11.258,11.258,0,0,0-2.656.391,13.744,13.744,0,0,0-4.375-.7q-.859,0-1.8.078l-1.875.156q-.937.156-1.914.234t-1.992.078Zm65.625-43.125a3.161,3.161,0,0,1,.039.82q-.039.273-.078.508a3.1,3.1,0,0,0-.039.508,3.313,3.313,0,0,0,.156.82A8.957,8.957,0,0,1,290.5,51.3a18.933,18.933,0,0,1-4.648,1.406q-2.5.43-5.117.9a15.177,15.177,0,0,0-5.2,2.031,2.249,2.249,0,0,0-1.836,0,4.632,4.632,0,0,1-2.383.234,2.609,2.609,0,0,1-1.172.664q-.7.2-1.406.43a3.111,3.111,0,0,1,.273,1.445,2.419,2.419,0,0,0,.2,1.211,33.982,33.982,0,0,0,6.055-.078q3.32-.312,6.523-.391.078.391-.078.508t-.078.43a7.382,7.382,0,0,1,1.094.977q.547.586,1.094,1.133a5.912,5.912,0,0,0,1.133.9,2.169,2.169,0,0,0,1.367.273,4.663,4.663,0,0,1,.43,1.367,2.85,2.85,0,0,1-.2,1.523q-1.25.859-2.5,1.758a20.7,20.7,0,0,1-2.617,1.6,15.506,15.506,0,0,1-2.891,1.133,10.83,10.83,0,0,1-3.4.352h-.586a.945.945,0,0,1-.508-.234,2.621,2.621,0,0,1-1.758.234,2.621,2.621,0,0,0-1.758.234,4.611,4.611,0,0,0-2.07-.352,6.151,6.151,0,0,1-2.148-.273,27.036,27.036,0,0,0-2.266,3.516,30.845,30.845,0,0,0-1.8,3.984,24.011,24.011,0,0,0,4.414.313q1.758-.078,3.32-.273t3.2-.391a28.557,28.557,0,0,1,4.141-.117,10.356,10.356,0,0,1,3.711-1.133,19.484,19.484,0,0,0,3.945-.9,2.537,2.537,0,0,1,1.094.82q.469.586.9,1.094a7.317,7.317,0,0,0,.9.9,1.494,1.494,0,0,0,1.172.313,1.643,1.643,0,0,1,.43.742q.117.43.2.82a1.7,1.7,0,0,0,.273.664.623.623,0,0,0,.664.2,11.768,11.768,0,0,1-2.7,3.945,10.456,10.456,0,0,1-3.477,2.07,24.515,24.515,0,0,1-4.336,1.094q-2.383.391-5.273.938a1.942,1.942,0,0,1-1.172-.039,2.828,2.828,0,0,0-1.094-.2q-1.8.391-4.3.7a32.858,32.858,0,0,1-5.078.234,23.131,23.131,0,0,1-4.922-.664,8.037,8.037,0,0,1-3.828-2.07,2.555,2.555,0,0,1-.82-1.289,1.736,1.736,0,0,0-1.055-1.133,21.253,21.253,0,0,0-.312-2.266q-.234-1.25-.469-2.617t-.352-2.7a8.139,8.139,0,0,1,.117-2.422,4.9,4.9,0,0,1,.977-2.109,2.347,2.347,0,0,0,.508-2.031.541.541,0,0,0,.469-.43q.078-.352.625-.273.469-1.406,1.016-2.656t1.133-2.422q.586-1.172,1.172-2.383t1.133-2.7a6.445,6.445,0,0,1-1.6-2.227,12.3,12.3,0,0,1-.742-2.422q-.234-1.211-.391-2.5a16.166,16.166,0,0,0-.547-2.617,6.7,6.7,0,0,1,1.914-1.914,11.384,11.384,0,0,1,2.461-1.211,21.154,21.154,0,0,1,2.891-.781q1.562-.312,3.281-.7,3.125-1.016,5.586-1.562t4.844-.9q2.383-.352,4.961-.664t5.859-.937a1.972,1.972,0,0,0,1.328.7q.313-.7.742-.43t.352-.43a7.432,7.432,0,0,0,1.992,2.227A12.906,12.906,0,0,0,294.211,45.016Zm-.625,8.828a6.878,6.878,0,0,1,1.758-2.812A13.119,13.119,0,0,1,298,49.039a18.388,18.388,0,0,1,3.008-1.367q1.562-.547,2.969-.937,3.125-1.328,6.68-2.539t7.266-2.148a43.412,43.412,0,0,1,7.617-1.211,23.423,23.423,0,0,1,8.2.977,5.53,5.53,0,0,0,.7,1.484q.469.7.977,1.406t.9,1.367a3.425,3.425,0,0,1,.469,1.367,6.181,6.181,0,0,1,1.25,1.523,2.916,2.916,0,0,1,.156,2.148q-.781.625-1.523,1.133a10.587,10.587,0,0,1-1.6.9,18.482,18.482,0,0,0-5.859-.469q-2.969.234-5.312.391a2.292,2.292,0,0,0-1.68-.7,7.142,7.142,0,0,0-2.031.313l-2.109.625a4.409,4.409,0,0,1-1.992.156,4.126,4.126,0,0,1-1.914.82q-1.133.2-2.461.352-.078.391.156.508t.078.508a2.578,2.578,0,0,0,1.211.781q.742.234,1.563.469a6.692,6.692,0,0,1,1.445.586,1.84,1.84,0,0,1,.859,1.133,3.7,3.7,0,0,1,2.031.547,4.906,4.906,0,0,1,1.406,1.328,5.917,5.917,0,0,1,.82,1.68,5.577,5.577,0,0,1,.273,1.6q.234.625.547.547t.7.313a4.819,4.819,0,0,0,1.172,2.07,8.708,8.708,0,0,1,1.484,2.3q.156,1.953.234,3.477a7.245,7.245,0,0,1-.547,3.086,17.1,17.1,0,0,1-3.242,5.156,25.824,25.824,0,0,1-4.687,4.023,32.864,32.864,0,0,1-5.586,3.008,60.426,60.426,0,0,1-5.781,2.109,1.269,1.269,0,0,0-.625,0q-.313.078-.156-.391a3,3,0,0,1-1.367.7,6.36,6.36,0,0,1-1.6.117q-.859-.039-1.758-.117a5.925,5.925,0,0,0-1.68.078q-.547-.547-.977-1.055a3.545,3.545,0,0,1-.664-1.289q-.391,0-.352-.391t-.273-.391q.469-.781.43-.9a.366.366,0,0,0-.234-.2,1.528,1.528,0,0,1-.352-.2.285.285,0,0,1-.078-.352,2.619,2.619,0,0,0,.234-1.445q-.078-.82-.156-1.68a4.893,4.893,0,0,1,.117-1.641,1.957,1.957,0,0,1,1.133-1.25,15.409,15.409,0,0,0,5.039-.2,22.652,22.652,0,0,0,4.492-1.445,44.667,44.667,0,0,0,4.023-2.031q1.914-1.094,3.789-1.953a3.208,3.208,0,0,1,.664-1.172,9.271,9.271,0,0,1,.9-.859,6.7,6.7,0,0,0,.859-.859,2.718,2.718,0,0,0,.547-1.172q.078-.547-.273-.664a.541.541,0,0,1-.352-.586l-.859-.234a16.521,16.521,0,0,0-3.359-1.445,19,19,0,0,1-3.2-1.289,2.007,2.007,0,0,1-1.6.234,18.8,18.8,0,0,0-1.914-.469q-2.656-.156-5.117-.547a18.652,18.652,0,0,1-4.727-1.406,3.057,3.057,0,0,0-.391-.7q-.234-.312-.859-.156-.469-.625-.937-1.211a9.244,9.244,0,0,1-.859-1.289q.156-.937.234-1.6a1.635,1.635,0,0,0-.469-1.289q.313-1.016.469-1.641A4.286,4.286,0,0,0,293.586,53.844Zm37.109,0a6.878,6.878,0,0,1,1.758-2.812,13.119,13.119,0,0,1,2.656-1.992,18.388,18.388,0,0,1,3.008-1.367q1.562-.547,2.969-.937,3.125-1.328,6.68-2.539t7.266-2.148a43.412,43.412,0,0,1,7.617-1.211,23.423,23.423,0,0,1,8.2.977,5.53,5.53,0,0,0,.7,1.484q.469.7.977,1.406t.9,1.367a3.425,3.425,0,0,1,.469,1.367,6.181,6.181,0,0,1,1.25,1.523,2.916,2.916,0,0,1,.156,2.148q-.781.625-1.523,1.133a10.587,10.587,0,0,1-1.6.9,18.482,18.482,0,0,0-5.859-.469q-2.969.234-5.312.391a2.292,2.292,0,0,0-1.68-.7,7.142,7.142,0,0,0-2.031.313l-2.109.625a4.409,4.409,0,0,1-1.992.156,4.126,4.126,0,0,1-1.914.82q-1.133.2-2.461.352-.078.391.156.508t.078.508a2.578,2.578,0,0,0,1.211.781q.742.234,1.563.469a6.692,6.692,0,0,1,1.445.586,1.84,1.84,0,0,1,.859,1.133,3.7,3.7,0,0,1,2.031.547,4.906,4.906,0,0,1,1.406,1.328,5.917,5.917,0,0,1,.82,1.68,5.577,5.577,0,0,1,.273,1.6q.234.625.547.547t.7.313a4.819,4.819,0,0,0,1.172,2.07A8.708,8.708,0,0,1,362.57,69q.156,1.953.234,3.477a7.245,7.245,0,0,1-.547,3.086,17.1,17.1,0,0,1-3.242,5.156,25.824,25.824,0,0,1-4.687,4.023,32.864,32.864,0,0,1-5.586,3.008,60.426,60.426,0,0,1-5.781,2.109,1.269,1.269,0,0,0-.625,0q-.313.078-.156-.391a3,3,0,0,1-1.367.7,6.36,6.36,0,0,1-1.6.117q-.859-.039-1.758-.117a5.925,5.925,0,0,0-1.68.078q-.547-.547-.977-1.055a3.545,3.545,0,0,1-.664-1.289q-.391,0-.352-.391t-.273-.391q.469-.781.43-.9a.366.366,0,0,0-.234-.2,1.528,1.528,0,0,1-.352-.2.285.285,0,0,1-.078-.352,2.619,2.619,0,0,0,.234-1.445q-.078-.82-.156-1.68a4.893,4.893,0,0,1,.117-1.641,1.957,1.957,0,0,1,1.133-1.25,15.409,15.409,0,0,0,5.039-.2,22.652,22.652,0,0,0,4.492-1.445,44.667,44.667,0,0,0,4.023-2.031q1.914-1.094,3.789-1.953a3.208,3.208,0,0,1,.664-1.172,9.271,9.271,0,0,1,.9-.859,6.7,6.7,0,0,0,.859-.859,2.718,2.718,0,0,0,.547-1.172q.078-.547-.273-.664a.541.541,0,0,1-.352-.586l-.859-.234a16.521,16.521,0,0,0-3.359-1.445,19,19,0,0,1-3.2-1.289,2.007,2.007,0,0,1-1.6.234,18.8,18.8,0,0,0-1.914-.469q-2.656-.156-5.117-.547a18.652,18.652,0,0,1-4.727-1.406,3.057,3.057,0,0,0-.391-.7q-.234-.312-.859-.156-.469-.625-.937-1.211a9.244,9.244,0,0,1-.859-1.289q.156-.937.234-1.6a1.635,1.635,0,0,0-.469-1.289q.313-1.016.469-1.641A4.286,4.286,0,0,0,330.7,53.844Zm56.484,34.3q-2.188.7-4.766,1.406a19.522,19.522,0,0,1-5.156.7,9.137,9.137,0,0,1-6.172-1.953,4.233,4.233,0,0,0-.7-1.172,5.8,5.8,0,0,1-.43-.664,2.744,2.744,0,0,1-.273-.977,8.466,8.466,0,0,1-1.484-2.539,13.05,13.05,0,0,1-.742-2.969,15.685,15.685,0,0,1,.43-6.055,1.929,1.929,0,0,0,.2-.625q.039-.313.117-.7.313-1.25.664-2.422a6.691,6.691,0,0,1,.977-2.031,2.027,2.027,0,0,1,0-1.562,10.852,10.852,0,0,1,.7-1.562q1.094-2.969,1.836-5.039t1.523-4.1q1.328-3.516,2.5-6.953t2.109-7.422q.625-.391.938-.547.469-.156.781-.234a29.129,29.129,0,0,0,3.281,1.367,9.752,9.752,0,0,0,3.125.664,3.59,3.59,0,0,1,.781.586,4.262,4.262,0,0,0,.313.352,15.237,15.237,0,0,1,1.484,2.07,4.239,4.239,0,0,1,.391,2.773q-.469.7-.7.7a21.884,21.884,0,0,1-.82,2.656q-.43,1.094-.9,2.188-.547,1.172-1.016,2.344a15.21,15.21,0,0,0-.781,2.891,2.684,2.684,0,0,0-.43.7q-.117.312-.273.7t-.352.82a2.007,2.007,0,0,1-.586.742A12.8,12.8,0,0,1,383,65.563q-.508,1.25-1.055,2.5-.937,2.266-1.68,4.531a20.047,20.047,0,0,0-.9,5.156,2,2,0,0,1,.742-.156h.664a6.886,6.886,0,0,1,1.641.234,13.1,13.1,0,0,1,5.117-1.484q2.773-.234,5.508-.312h2.188a12.375,12.375,0,0,0,2.031-.156,4.6,4.6,0,0,0,.9.43,3.236,3.236,0,0,0,.586.039,4.852,4.852,0,0,1,.938.078,7.045,7.045,0,0,0,1.8,1.25,18.4,18.4,0,0,0,1.8.7q.859.313,1.68.664a6.958,6.958,0,0,1,1.6.977l.547,3.359q.547.7.469.938a1.273,1.273,0,0,1-.312.938l.156.859a4.424,4.424,0,0,0-1.6.547,6.9,6.9,0,0,0-.82.7,8.253,8.253,0,0,1-.9.078h-.508a11.258,11.258,0,0,0-2.656.391,13.744,13.744,0,0,0-4.375-.7q-.859,0-1.8.078l-1.875.156q-.937.156-1.914.234t-1.992.078Zm44.609-19.609a4.443,4.443,0,0,0-.937,1.133q-.391.664-.781,1.367a16.274,16.274,0,0,1-.859,1.641,6.016,6.016,0,0,1-1.172,1.406,9.9,9.9,0,0,1-.781,1.836,8.067,8.067,0,0,1-1.25,1.523,18.728,18.728,0,0,1-3.672,6.8,3.8,3.8,0,0,1-.43,1.367q-.352.664-.742,1.289-.156.234-.312.508t-.234.43l-.156.781A6.139,6.139,0,0,1,419.6,89.7l-.859.859a4.576,4.576,0,0,1-.547.625l-1.172.469q-5.7-.781-6.953-6.094l.078-.781a7.572,7.572,0,0,0,.273-.82q.117-.43.273-.9.313-1.094.742-2.187a5.675,5.675,0,0,1,1.289-1.953,14.829,14.829,0,0,1,.7-1.758q.547-1.211,1.875-3.633,1.094-1.875,1.719-2.969t1.016-1.719a11.132,11.132,0,0,0-1.875-2.266q-1.016-1.953-1.758-3.75a28.565,28.565,0,0,1-1.133-3.2,12.5,12.5,0,0,0-.234-1.719q-.156-.7-.312-1.484-.234-.859-.391-1.719a10.032,10.032,0,0,1-.156-1.8,2.5,2.5,0,0,1-.469-1.094l.156-.781a2.58,2.58,0,0,0,.078-1.445q-.156-.9-.391-1.836-.156-.781-.352-1.719a6.5,6.5,0,0,1-.117-1.875,4.567,4.567,0,0,1,.508-1.758,3.834,3.834,0,0,1,1.445-1.445l1.328-.078q.7.391,1.367.742t1.289.742q.859.391,1.641.781a11.76,11.76,0,0,1,1.641,1.016l.547,1.094,1.016.859v.859a3.707,3.707,0,0,1,.078.859q0,1.016.313,1.25l.313.938a8.848,8.848,0,0,0,.234,2.07q.234.977.469,1.836t.469,1.8a5.256,5.256,0,0,1,.078,2.031,2.974,2.974,0,0,0,.781-.547,1.224,1.224,0,0,1,.313-.234,1.224,1.224,0,0,0,.313-.234l4.609-6.25-.156-.781,1.641-1.562q.625-.625,1.211-1.172a5.838,5.838,0,0,0,.977-1.172l.859-.625a10.617,10.617,0,0,1,7.109-4.844l1.094-.156.313,1.016a3.413,3.413,0,0,0,1.289,1.563,23.457,23.457,0,0,0,2.07,1.328l.7.469a3,3,0,0,1,.391,1.172,2.9,2.9,0,0,1-.078.7l.313.781a6.679,6.679,0,0,1-1.523,2.734q-.9.859-1.758,1.563-.7.625-1.289,1.133a3.289,3.289,0,0,0-.9,1.289l-.547.625a4.275,4.275,0,0,0-2.109,2.5l-.234.938h-.937q-.078,0-.352.273a6.329,6.329,0,0,0-.82,1.367,9.02,9.02,0,0,1-.781,1.016l-.391.391a3.866,3.866,0,0,1-.2.586q-.117.273-.273.664a6.578,6.578,0,0,0-1.25,1.523q-.234.508-.547,1.133t-.586,1.211a4.393,4.393,0,0,1-.9,1.211ZM448.664,79.7a11.648,11.648,0,0,1,.234,1.172,11.648,11.648,0,0,0,.234,1.172q-.313.781-.547,1.523t-.469,1.445q-.234.547-.312.7a.6.6,0,0,0-.078.234.643.643,0,0,0,.039.2,3.1,3.1,0,0,1,.039.664l-.312.938a2.939,2.939,0,0,1-.937.859,10.706,10.706,0,0,1-1.094.547,1.309,1.309,0,0,1-.469.273,1.309,1.309,0,0,0-.469.273l-.234.938-1.016.156a10.151,10.151,0,0,1-2.266.313h-.937q-.937-.859-1.484-1.328a9.684,9.684,0,0,0-1.172-.859,4.607,4.607,0,0,1-.859-1.6,5.939,5.939,0,0,0-.234-.977,3.349,3.349,0,0,0-.391-1.328l-1.094-1.094.938-.7-.859-1.484q.938-.7,1.406-1.016a4.022,4.022,0,0,0,.781-.664,10.975,10.975,0,0,0,.7-.9q.391-.547,1.25-1.8l.7-1.016,1.016.547a3.756,3.756,0,0,0,1.367.43q1.055.2,1.836.352a21.326,21.326,0,0,0,2.5.586,3.66,3.66,0,0,1,1.875.82Z" transform="matrix(0.998, -0.07, 0.07, 0.998, -20572.279, -16558.412)" fill="#ffa300"/>
    </clipPath>
  </defs>
  <g id="Fearlessly-2" data-name="Fearlessly" transform="translate(20541.336 16559.488)" clip-path="url(#clip-path)">
    <g id="CTA" transform="translate(-22780 -19703)">
      <path id="Контур_2926" data-name="Контур 2926" d="M107.408,0,214.816,60.8V604.3H0V60.8Z" transform="translate(2692.854 3076) rotate(90)" fill="#fff"/>
      <path id="Контур_1187" data-name="Контур 1187" d="M107.408,0,214.816,60.8V329.872H0V60.8Z" transform="translate(2232.614 3076) rotate(90)" fill="#4ec3e0"/>
      <path id="Контур_1188" data-name="Контур 1188" d="M107.408,0,214.816,60.8v249.59H0V60.8Z" transform="translate(2011.614 3076) rotate(90)" fill="#b5bd00"/>
      <path id="Контур_1189" data-name="Контур 1189" d="M107.408,0,214.816,60.8V448.848H0V60.8Z" transform="translate(1795.91 3076) rotate(90)" fill="#ffa300"/>
      <path id="Контур_1190" data-name="Контур 1190" d="M107.408,0,214.816,60.8V604.3H0V60.8Z" transform="translate(1533.854 3076) rotate(90)" fill="#b884cb"/>
      <path id="Контур_2925" data-name="Контур 2925" d="M107.408,0,214.816,60.8V604.3H0V60.8Z" transform="translate(1170.854 3076) rotate(90)" fill="#fff"/>
    </g>
  </g>
</svg>
