<svg xmlns="http://www.w3.org/2000/svg" width="170.569" height="62.443" viewBox="0 0 170.569 62.443">
  <g id="Group_4097" data-name="Group 4097" transform="translate(-500 -1274.167)">
    <path id="location" d="M25.082,61.443S6,34.443,6,22.922C6,.24,25.082,0,25.082,0S44.4.24,44.4,22.8C44.4,34.681,25.082,61.443,25.082,61.443ZM25.2,11.521a7.68,7.68,0,1,0,7.68,7.68A7.681,7.681,0,0,0,25.2,11.521Z" transform="translate(494 1275.167)" fill="#fff"/>
    <g id="Logo_Home" data-name="Logo Home" transform="translate(553 12.167)">
      <g id="Component_4" data-name="Component 4" transform="translate(14 1262)">
        <path id="Path_99" data-name="Path 99" d="M133.207,189.763,36,205.872l7.336,1.965v-1.589l89.871-14.893Z" transform="translate(-36 -166.173)" fill="#fff"/>
        <path id="Path_100" data-name="Path 100" d="M36.01,140.145l97.2-16.109-7.336-1.965v1.589L36.01,138.547Z" transform="translate(-36.006 -122.071)" fill="#fff"/>
        <path id="Path_101" data-name="Path 101" d="M36.01,194.671V180.339l7.672-1.215v2.082l-5.353.845v3.891l5.2-.824v2.09l-5.2.823v4.186l5.353-.848v2.086Z" transform="translate(-36.006 -159.526)" fill="#fff"/>
        <path id="Path_102" data-name="Path 102" d="M66.679,188.9l-4.192-13.668,2.419-.382,3.056,11,3.075-11.967,2.6-.411-4.189,14.989Z" transform="translate(-52.548 -155.432)" fill="#fff"/>
        <path id="Path_103" data-name="Path 103" d="M255,159.068,250.809,145.4l2.418-.381,3.056,11,3.077-11.971,2.6-.412-4.19,14.994Z" transform="translate(-173.947 -136.067)" fill="#fff"/>
        <path id="Path_104" data-name="Path 104" d="M134.911,179.794l-2.382-5.036-1.847.294v5.412l-2.318.367,0-14.331,4.36-.689a3.85,3.85,0,0,1,4.443,2.981,4.431,4.431,0,0,1-2.463,5.314l2.708,5.291Zm-.129-10.406a1.786,1.786,0,0,0-2.049-1.5l-2.054.325,0,4.732,2.168-.343A2.466,2.466,0,0,0,134.781,169.388Z" transform="translate(-95.279 -150.412)" fill="#fff"/>
        <path id="Path_105" data-name="Path 105" d="M160.785,175.631V161.3l4.716-.747a3.383,3.383,0,0,1,4.105,2.542,3.558,3.558,0,0,1-2.152,4.276,2.964,2.964,0,0,1,2.374,2.374,3.924,3.924,0,0,1-3.382,4.99Zm6.437-11.766a1.6,1.6,0,0,0-1.922-1.217l-2.2.349,0,3.888,2.578-.409A2,2,0,0,0,167.222,163.866Zm.218,6.049a1.6,1.6,0,0,0-1.986-1.311l-2.355.373v4.186l2.627-.418A2.2,2.2,0,0,0,167.44,169.915Z" transform="translate(-116.091 -146.997)" fill="#fff"/>
        <path id="Path_106" data-name="Path 106" d="M230.5,164.053l2.418-.382-4.193-13.666-2.771.438-4.19,14.995,2.6-.412.761-2.951,4.621-.731Zm-4.81-4.181,1.753-6.82,1.745,6.268Z" transform="translate(-155.294 -140.2)" fill="#fff"/>
        <path id="Path_107" data-name="Path 107" d="M199.451,169.569l-2.381-5.037-1.845.295v5.412l-2.315.366V156.277l4.368-.693a3.841,3.841,0,0,1,4.433,2.984,4.43,4.43,0,0,1-2.463,5.314l2.7,5.293Zm-.126-10.408a1.785,1.785,0,0,0-2.049-1.5l-2.051.325v4.732l2.167-.341A2.469,2.469,0,0,0,199.325,159.161Z" transform="translate(-136.707 -143.777)" fill="#fff"/>
        <path id="Path_108" data-name="Path 108" d="M313.769,140.032V138.27l-.605.1v-.32l1.558-.246v.318l-.6.1v1.763Z" transform="translate(-213.661 -131.898)" fill="#fff"/>
        <path id="Path_109" data-name="Path 109" d="M320.207,138.878v-1.608l-.61,1.707-.149.022-.611-1.509v1.605l-.351.056v-2.081l.481-.074.541,1.342.543-1.516.5-.079v2.081Z" transform="translate(-216.986 -131.236)" fill="#fff"/>
        <path id="Path_110" data-name="Path 110" d="M98.382,184.79V170.458l7.672-1.215v2.082l-5.354.845v3.891l5.2-.823v2.089l-5.2.823v4.186l5.354-.848v2.087Z" transform="translate(-76.023 -152.69)" fill="#fff"/>
        <path id="Path_111" data-name="Path 111" d="M286.605,154.979V140.648l7.672-1.215v2.082l-5.354.845v3.891l5.2-.823v2.09l-5.2.823v4.186l5.354-.848v2.086Z" transform="translate(-197.069 -132.918)" fill="#fff"/>
      </g>
    </g>
  </g>
</svg>
