<svg xmlns="http://www.w3.org/2000/svg" width="146.769" height="95.793" viewBox="0 0 146.769 95.793">
  <g id="Сгруппировать_3592" data-name="Сгруппировать 3592" transform="translate(-1211.785 -603.43)">
    <path id="Контур_4201" data-name="Контур 4201" d="M66.2,25.526H15.33C5.156,25.526-8.41,59.44,6.851,59.44h20.01l-6.156,9.242a1.7,1.7,0,0,0,.475,2.341,1.6,1.6,0,0,0,.933.288,1.7,1.7,0,0,0,1.407-.763L30.3,60.373a1.565,1.565,0,0,0,.288-.933H50.941a1.558,1.558,0,0,0,.254.933l6.784,10.175a1.7,1.7,0,0,0,1.441.763,1.592,1.592,0,0,0,.932-.288,1.7,1.7,0,0,0,.475-2.341L54.671,59.44h20.01C89.943,59.44,76.378,25.526,66.2,25.526ZM22.114,47.57A5.087,5.087,0,1,1,27.2,42.483,5.087,5.087,0,0,1,22.114,47.57Zm18.653,0a5.087,5.087,0,1,1,5.087-5.087A5.087,5.087,0,0,1,40.767,47.57Zm18.654,0a5.087,5.087,0,1,1,5.086-5.087A5.087,5.087,0,0,1,59.42,47.57ZM15.33,22.134a7.884,7.884,0,0,0-.915,0,26.674,26.674,0,0,1,52.568,0,7.768,7.768,0,0,0-.78,0Z" transform="translate(1211.785 632.648) rotate(-21)" fill="#fff"/>
    <path id="Контур_4209" data-name="Контур 4209" d="M48.681,38.312c4.4,5.948,5.477,14.826,5.546,21.733.027,2.235,3.5,2.242,3.47,0-.083-7.753-1.415-17.263-6.281-23.857a8.8,8.8,0,0,0,2.6-6.087c0-3.339-2.062-6.289-5.227-8.149l3.228-6.087c.625-1.18.368-1.361-.569-.417L46.21,20.766A15.814,15.814,0,0,0,42.642,20l-1.319-9.044c-.194-1.319-.507-1.319-.7,0L39.3,20a15.9,15.9,0,0,0-3.567.763L30.5,15.448c-.937-.944-1.187-.763-.563.417l3.228,6.087c-3.173,1.86-5.227,4.81-5.227,8.149a8.819,8.819,0,0,0,2.589,6.087c-4.865,6.594-6.2,16.1-6.281,23.857-.021,2.235,3.45,2.235,3.471,0,.076-6.913,1.152-15.784,5.545-21.733A14.432,14.432,0,0,0,35.66,39.4V62.974H30.246a1.737,1.737,0,0,0,0,3.471H37.4a1.764,1.764,0,0,0,1.735-1.735V40.187a15.489,15.489,0,0,0,3.692,0V64.709a1.759,1.759,0,0,0,1.735,1.735H51.7a1.736,1.736,0,0,0,0-3.471H46.294V39.4A14.6,14.6,0,0,0,48.681,38.312Zm-7.7-6.885a3.932,3.932,0,1,1,3.929-3.936A3.937,3.937,0,0,1,40.977,31.427Z" transform="translate(1301.457 600.311) rotate(3)" fill="#fff"/>
  </g>
</svg>
