<svg xmlns="http://www.w3.org/2000/svg" width="124.668" height="128.766" viewBox="0 0 124.668 128.766">
  <g id="moon_man" data-name="moon man" transform="translate(-530.211 13.035)">
    <path id="Контур_4196" data-name="Контур 4196" d="M637.239,15.528c-1.7.229-2.389,3.061-2.309,5.672a9.678,9.678,0,0,0,.924,4.149,2.154,2.154,0,0,0,1.893,1.381c1.577-.047,2.661-2.44,2.563-5.69a12.336,12.336,0,0,0-.107-1.307,8.075,8.075,0,0,0-.858-2.826A2.175,2.175,0,0,0,637.239,15.528Z" transform="translate(-50.063 -13.649)" fill="#fff"/>
    <path id="Контур_4197" data-name="Контур 4197" d="M620.045,21.889a8.833,8.833,0,0,1,.284.882l.02.067a.8.8,0,0,0,.87.569.834.834,0,0,0,.114-.025.8.8,0,0,0,.544-.983l-.019-.067a9.861,9.861,0,0,0-.343-1.051.8.8,0,0,0-1.469.609Z" transform="translate(-42.922 -16.174)" fill="#fff"/>
    <path id="Контур_4198" data-name="Контур 4198" d="M612.846,10.912a4.914,4.914,0,0,1,2.195,2.63.8.8,0,0,0,.853.513h0a.76.76,0,0,0,.169-.042.8.8,0,0,0,.472-1.02,6.5,6.5,0,0,0-2.868-3.445l-.016-.01a.8.8,0,0,0-.8,1.372Z" transform="translate(-39.32 -10.741)" fill="#fff"/>
    <path id="Контур_4199" data-name="Контур 4199" d="M653.284,32.527c-6.694-11.742-4.154-16-4.154-16-5.594,3.222-33.311,6.659-49.829,5.447-7.727-.567-12.566.007-15.6.947a23.978,23.978,0,0,0,4.645-8.323q-.3.051-.611.072a3.675,3.675,0,0,1-3.338-2.213A11.081,11.081,0,0,1,583.278,7.6c-.124-4.166,1.3-6.975,3.669-7.295a6.833,6.833,0,0,1,.97.014c-2.939-9.044-11.323-14-22.54-13.285q-.938.063-1.837.184c-6.036.816-10.919,3.63-13.927,8.093a21.826,21.826,0,0,0-3.388,7.984,31.529,31.529,0,0,0-.553,6.633,24.421,24.421,0,0,0,1.345,6.986,17.706,17.706,0,0,0,5.726,8.769c.274.231,1.748,1.257,2.212,1.525l0,.006a15.75,15.75,0,0,0,2.584,1.194l.411,10.332-9.435,8.339-9.227-10.791-9.074,7.758,17.115,20.015,11.233-9.929L559.389,75,547.8,86.235l9.964,29.5h13.869l-6.761-23.195,22.255-8.407,15.8,31.6h13.563L601.68,73.995l9.113-12.62-6.675-14.09c5.626,3.418,11.375,6.678,14.962,8.081,6.965,2.723,22.824,4.912,22.824,4.912s-3.863-8.093,3.148-11.7S657.777,40.4,653.284,32.527ZM547.609,9.745c-.825-6.987,2.878-15.367,13.4-16.836l.087-.012a18.106,18.106,0,0,1,12.769,3.217,17.3,17.3,0,0,1,4.02,3.768,21.2,21.2,0,0,1,2.961,4.847,8.4,8.4,0,0,1,.478,5.418,21.006,21.006,0,0,1-2.536,6.254,13.094,13.094,0,0,1-3.945,4.165,16.235,16.235,0,0,1-3.176,1.78l-5.925,1.48c-.459.058-.921.106-1.382.141C554.527,24.49,548.789,19.743,547.609,9.745Z" transform="translate(0)" fill="#fff"/>
  </g>
</svg>
