<svg xmlns="http://www.w3.org/2000/svg" width="319.709" height="319.593" viewBox="0 0 319.709 319.593">
  <path id="Контур_4200" data-name="Контур 4200" d="M768.384,456.273c-88.13,0-159.856,71.667-159.856,159.8s71.726,159.8,159.856,159.8S928.237,704.2,928.237,616.07,856.514,456.273,768.384,456.273ZM671.717,629.946A19.485,19.485,0,1,1,691.2,610.46,19.471,19.471,0,0,1,671.717,629.946Zm27.2,71.725A11.675,11.675,0,1,1,710.593,690,11.667,11.667,0,0,1,698.918,701.671Zm1.271-161.049a12.1,12.1,0,1,1,12.1-12.1A12.09,12.09,0,0,1,700.19,540.622Zm38.5,23.534a13.093,13.093,0,1,1,13.093,13.092A13.083,13.083,0,0,1,738.687,564.156Zm22.8,170.188a9.7,9.7,0,1,1,9.7-9.7A9.7,9.7,0,0,1,761.484,734.345Zm16.123-68.792a16.123,16.123,0,1,1,16.122-16.122A16.11,16.11,0,0,1,777.607,665.553Zm27.412,37.536A13.093,13.093,0,1,1,818.113,690,13.082,13.082,0,0,1,805.019,703.088Zm25.942-132.54a19.485,19.485,0,1,1,19.485-19.485A19.47,19.47,0,0,1,830.962,570.548Zm43.851,78.883a11.675,11.675,0,1,1,11.674-11.676A11.667,11.667,0,0,1,874.813,649.431Z" transform="translate(-608.528 -456.273)" fill="#fff"/>
</svg>
