<svg xmlns="http://www.w3.org/2000/svg" width="89.556" height="105.794" viewBox="0 0 89.556 105.794">
  <g id="Planet" transform="matrix(0.407, 0.914, -0.914, 0.407, 69.744, -12.95)">
    <path id="Контур_4206" data-name="Контур 4206" d="M56.84,61.847C74.663,51.556,99.359,33.092,94.34,24.4c-2.656-4.6-11.848-3.359-22.555.354a33.58,33.58,0,0,1,3.159,3.108c9.359-2.987,15-3.073,15.931-1.462,1.06,1.836-2.837,7.863-12.52,15.928A29.373,29.373,0,1,0,29.186,70.717c-11.829,4.356-19,4.718-20.062,2.882-.929-1.61,1.963-6.449,9.219-13.054a33,33,0,0,1-1.117-4.286C8.667,63.669,3.005,71,5.659,75.6,10.678,84.292,39.017,72.137,56.84,61.847Z" fill="#fff"/>
    <path id="Контур_4207" data-name="Контур 4207" d="M79.322,51.691a194.358,194.358,0,0,1-20.48,13.623A195.063,195.063,0,0,1,36.8,76.239,29.369,29.369,0,0,0,79.322,51.691Z" fill="#fff"/>
  </g>
</svg>
