<svg xmlns="http://www.w3.org/2000/svg" width="134.219" height="139.406" viewBox="0 0 134.219 139.406">
  <path id="rocket" d="M228.8,544.733l15.278,6.335a88.181,88.181,0,0,0-4.109,13.395l-.58,2.634,21.9,21.916,2.634-.566a88.428,88.428,0,0,0,13.395-4.109l6.335,15.278a.989.989,0,0,0,1.62.316l9.575-9.575a15.806,15.806,0,0,0,4.61-11.972l-.342-6.151c17.728-13.092,35.666-36.048,40.553-76.114a6.583,6.583,0,0,0-7.389-7.428c-40.052,4.926-63.022,22.878-76.113,40.553l-6.138-.316a15.8,15.8,0,0,0-11.972,4.544l-9.575,9.575a.988.988,0,0,0,.316,1.686Zm61.428-23.339a11.854,11.854,0,1,1-.029.029Zm-64.286,69.37a15.547,15.547,0,0,0-7.9-.632,1.444,1.444,0,0,1-1.607-2.015c2.805-6.032,10.247-18.162,23.72-8.363a.672.672,0,0,1,.053.948c-.017.018-.034.036-.053.053a14.627,14.627,0,0,0-5.571,11.985,1.067,1.067,0,0,0,1.027,1.027,14.623,14.623,0,0,0,11.985-5.453.671.671,0,0,1,1.04,0c1.87,2.226,7.02,9.5,1.317,16.516a14.824,14.824,0,0,1-9.931,5.268c-5.532.593-15.752,2.4-19.927,7.165a1.437,1.437,0,0,1-2.476-.527C216.142,611.706,213.851,600.458,225.941,590.765Z" transform="matrix(0.996, 0.087, -0.087, 0.996, -161.634, -505.627)" fill="#fff"/>
</svg>
