<svg xmlns="http://www.w3.org/2000/svg" width="24.298" height="20.33" viewBox="0 0 24.298 20.33">
  <path id="chat" d="M20.471,15.873V5.76A1.811,1.811,0,0,0,18.66,3.949H2.81A1.81,1.81,0,0,0,1,5.76V15.873A1.811,1.811,0,0,0,2.81,17.684H5.83v4.16l4.62-4.16h8.21A1.81,1.81,0,0,0,20.471,15.873Zm3.015-7.948H21.22v8.835a2.08,2.08,0,0,1-1.744,1.735c-.759,0-8.864.045-8.864.045a1.649,1.649,0,0,0,1.811,1.608h3.49l4.553,4.132-.006-4.132h3.026A1.649,1.649,0,0,0,25.3,18.539V9.685a1.769,1.769,0,0,0-1.811-1.761Z" transform="translate(-0.999 -3.949)" fill="#fff"/>
</svg>
