<svg xmlns="http://www.w3.org/2000/svg" xmlns:xlink="http://www.w3.org/1999/xlink" width="20" height="20" viewBox="0 0 20 20">
  <defs>
    <clipPath id="clip-path">
      <rect width="20" height="20" fill="none"/>
    </clipPath>
  </defs>
  <g id="instagram" clip-path="url(#clip-path)">
    <path id="Контур_3" data-name="Контур 3" d="M9.934,1.766a30.461,30.461,0,0,1,3.974.11,5.12,5.12,0,0,1,1.876.331,3.877,3.877,0,0,1,1.876,1.876,5.12,5.12,0,0,1,.331,1.876c0,.993.11,1.325.11,3.974a30.461,30.461,0,0,1-.11,3.974,5.12,5.12,0,0,1-.331,1.876,3.877,3.877,0,0,1-1.876,1.876,5.12,5.12,0,0,1-1.876.331c-.993,0-1.325.11-3.974.11a30.461,30.461,0,0,1-3.974-.11,5.12,5.12,0,0,1-1.876-.331,3.877,3.877,0,0,1-1.876-1.876,5.12,5.12,0,0,1-.331-1.876c0-.993-.11-1.325-.11-3.974a30.461,30.461,0,0,1,.11-3.974,5.12,5.12,0,0,1,.331-1.876,3.964,3.964,0,0,1,.773-1.1,1.866,1.866,0,0,1,1.1-.773,5.12,5.12,0,0,1,1.876-.331,30.461,30.461,0,0,1,3.974-.11M9.934,0A32.615,32.615,0,0,0,5.85.11,6.815,6.815,0,0,0,3.422.552a4.321,4.321,0,0,0-1.766,1.1,4.321,4.321,0,0,0-1.1,1.766A5.029,5.029,0,0,0,.11,5.85,32.615,32.615,0,0,0,0,9.934a32.615,32.615,0,0,0,.11,4.084,6.815,6.815,0,0,0,.442,2.428,4.321,4.321,0,0,0,1.1,1.766,4.321,4.321,0,0,0,1.766,1.1,6.814,6.814,0,0,0,2.428.442,32.615,32.615,0,0,0,4.084.11,32.615,32.615,0,0,0,4.084-.11,6.815,6.815,0,0,0,2.428-.442,4.631,4.631,0,0,0,2.87-2.87,6.814,6.814,0,0,0,.442-2.428c0-1.1.11-1.435.11-4.084a32.615,32.615,0,0,0-.11-4.084,6.815,6.815,0,0,0-.442-2.428,4.321,4.321,0,0,0-1.1-1.766,4.321,4.321,0,0,0-1.766-1.1A6.815,6.815,0,0,0,14.018.11,32.615,32.615,0,0,0,9.934,0m0,4.857A5,5,0,0,0,4.857,9.934,5.078,5.078,0,1,0,9.934,4.857m0,8.389A3.252,3.252,0,0,1,6.623,9.934,3.252,3.252,0,0,1,9.934,6.623a3.252,3.252,0,0,1,3.311,3.311,3.252,3.252,0,0,1-3.311,3.311m5.3-9.824a1.214,1.214,0,1,0,1.214,1.214,1.225,1.225,0,0,0-1.214-1.214" fill="#fff" fill-rule="evenodd"/>
  </g>
</svg>
