<svg id="linkedin" xmlns="http://www.w3.org/2000/svg" width="20.932" height="20.932" viewBox="0 0 20.932 20.932">
  <path id="linkedin-2" data-name="linkedin" d="M10674-1874.068v-15.118h4.649v15.118Zm16.278,0v-7.979c0-1.853-.705-3.268-2.322-3.268a2.436,2.436,0,0,0-2.18,1.825,3.17,3.17,0,0,0-.149,1.121v8.3h-4.649v-9.949c0-1.8-.061-3.3-.118-4.6h4.179l.207,2h.088a5.17,5.17,0,0,1,4.445-2.327c2.944,0,5.153,1.972,5.153,6.212v8.654ZM10674-1892.615a2.289,2.289,0,0,1,2.324-2.385,2.255,2.255,0,0,1,2.325,2.325,2.2,2.2,0,0,1-2.328,2.3A2.2,2.2,0,0,1,10674-1892.615Z" transform="translate(-10674.002 1895)" fill="#fff"/>
</svg>
