<svg xmlns="http://www.w3.org/2000/svg" width="23.404" height="19.02" viewBox="0 0 23.404 19.02">
  <g id="Компонент_1" data-name="Компонент 1" transform="translate(0 0)">
    <path id="Контур_504" data-name="Контур 504" d="M396.268,978.381a9.626,9.626,0,0,1-3.049,1.168,4.8,4.8,0,0,0-8.305,3.284,4.907,4.907,0,0,0,.123,1.094,13.63,13.63,0,0,1-9.9-5.018,4.8,4.8,0,0,0,1.485,6.41,4.774,4.774,0,0,1-2.176-.6v.062a4.806,4.806,0,0,0,3.851,4.708,4.765,4.765,0,0,1-2.168.082,4.808,4.808,0,0,0,4.486,3.336,9.7,9.7,0,0,1-7.11,1.988,13.657,13.657,0,0,0,21.023-11.505c0-.207,0-.416-.013-.621a9.743,9.743,0,0,0,2.395-2.485,9.59,9.59,0,0,1-2.756.756A4.815,4.815,0,0,0,396.268,978.381Z" transform="translate(-373.51 -978.031)" fill="#fff"/>
  </g>
</svg>
